# xmcd
#
# Track frame offsets:
#  150
#  26413
#  50592
#  67506
#  86965
#  106624
#  122737
#  143695
#  160067
#  179221
#  192744
#  210736
#  225501
#  248046
#
# Disc length: 3513 seconds
#
# Revision: 0
# Processed by: cddbd v1.4PL0 Copyright (c) Steve Scherf et al.
# Submitted via: FCDBAsst 2.0
#
DISCID=bd0db70e
DTITLE=Various Artist - Dark Was the Night:  A Tribute
DYEAR=1900
DGENRE=
TTITLE0=Jody Stecher and Kate Brislin - Latter Rain - Keep Your Lamp Trimmed and B
TTITLE0=urning
TTITLE1=Martin Simpson - I Can't Keep from Crying
TTITLE2=3 Mississippistaphas 3 - When the War Was On
TTITLE3=Helen Watson and Heather Greenbank - Tear This Building Down
TTITLE4=Julie Murphy and Richard Llewellyn - John the Revelator
TTITLE5=Mike Seeger and Alexia Smith - Let It Shine
TTITLE6=The Henry's with Mary Margaret O'Hara - God Moves on the Water
TTITLE7=Ginny Clee - God Don't Never Change
TTITLE8=Bob Copper and the Latest English Country Blues Band - Soul of a Man
TTITLE9=The Positively Testcard - Dark Was the Night
TTITLE10=Martin Simpson - Nobody's Fault But Mine
TTITLE11=Peter Stampfel and Gary Lucas - Praise God I'm Satisfied
TTITLE12=Mike Cooper - Everybody Ought to Treat a Stranger Right
TTITLE13=Jody Stecher and Kate Brislin - Latter Rain Done Fell on Me
EXTD=
EXTT0=
EXTT1=
EXTT2=
EXTT3=
EXTT4=
EXTT5=
EXTT6=
EXTT7=
EXTT8=
EXTT9=
EXTT10=
EXTT11=
EXTT12=
EXTT13=
PLAYORDER=
